<?xml version="1.0" encoding="UTF-8"?>
<!DOCTYPE svg PUBLIC "-//W3C//DTD SVG 1.1//EN" "http://www.w3.org/Graphics/SVG/1.1/DTD/svg11.dtd">
<svg xmlns="http://www.w3.org/2000/svg" version="1.1" width="80px" height="80px" style="shape-rendering:geometricPrecision; text-rendering:geometricPrecision; image-rendering:optimizeQuality; fill-rule:evenodd; clip-rule:evenodd" xmlns:xlink="http://www.w3.org/1999/xlink">
<g><path style="opacity:1" fill="#adbed2" d="M 34.5,29.5 C 32.5,31.1667 30.5,32.8333 28.5,34.5C 22.9774,27.1344 16.1441,21.4677 8,17.5C 6.48318,14.6568 4.98318,11.8234 3.5,9C 4.81506,5.65621 7.1484,3.98954 10.5,4C 12.6705,5.58622 15.0038,6.91956 17.5,8C 19.2353,10.1922 20.402,12.6922 21,15.5C 25.7033,20.0355 30.2033,24.7021 34.5,29.5 Z"/></g>
<g><path style="opacity:1" fill="#d9d2ef" d="M 49.5,37.5 C 47.5398,35.8437 45.5398,34.177 43.5,32.5C 41.7545,29.3374 40.2545,26.004 39,22.5C 37.7342,12.5339 41.9009,6.03394 51.5,3C 55.3616,2.08672 59.0283,2.42006 62.5,4C 58.3179,8.01499 54.3179,12.1817 50.5,16.5C 51.2105,19.6731 52.3771,22.6731 54,25.5C 57.0022,27.171 60.1688,28.0043 63.5,28C 67.3333,24.1667 71.1667,20.3333 75,16.5C 77.4728,23.7935 76.1395,30.4602 71,36.5C 64.1154,41.5023 56.9487,41.8356 49.5,37.5 Z"/></g>
<g><path style="opacity:0.961" fill="#6b7d93" d="M 35.5,27.5 C 35.5,27.8333 35.5,28.1667 35.5,28.5C 35.5,28.8333 35.5,29.1667 35.5,29.5C 35.1667,29.5 34.8333,29.5 34.5,29.5C 30.2033,24.7021 25.7033,20.0355 21,15.5C 20.402,12.6922 19.2353,10.1922 17.5,8C 15.0038,6.91956 12.6705,5.58622 10.5,4C 7.1484,3.98954 4.81506,5.65621 3.5,9C 4.98318,11.8234 6.48318,14.6568 8,17.5C 16.1441,21.4677 22.9774,27.1344 28.5,34.5C 28.1667,34.5 27.8333,34.5 27.5,34.5C 23.369,30.8704 19.369,27.037 15.5,23C 7.99562,20.9944 3.32895,16.161 1.5,8.5C 3.04994,4.09142 6.04994,1.92475 10.5,2C 17.1853,4.24094 21.352,8.74094 23,15.5C 27.0356,19.7036 31.2022,23.7036 35.5,27.5 Z"/></g>
<g><path style="opacity:0.302" fill="#8f7aa5" d="M 55.5,41.5 C 54.8333,41.5 54.1667,41.5 53.5,41.5C 53.1667,41.5 52.8333,41.5 52.5,41.5C 51.7888,39.9699 50.7888,38.6366 49.5,37.5C 56.9487,41.8356 64.1154,41.5023 71,36.5C 76.1395,30.4602 77.4728,23.7935 75,16.5C 71.1667,20.3333 67.3333,24.1667 63.5,28C 60.1688,28.0043 57.0022,27.171 54,25.5C 52.3771,22.6731 51.2105,19.6731 50.5,16.5C 54.3179,12.1817 58.3179,8.01499 62.5,4C 59.0283,2.42006 55.3616,2.08672 51.5,3C 41.9009,6.03394 37.7342,12.5339 39,22.5C 40.2545,26.004 41.7545,29.3374 43.5,32.5C 41.3757,30.9408 39.709,28.9408 38.5,26.5C 37.4822,27.1925 36.4822,27.8592 35.5,28.5C 35.5,28.1667 35.5,27.8333 35.5,27.5C 35.1495,6.68514 45.1495,-1.48153 65.5,3C 61.3333,7.16667 57.1667,11.3333 53,15.5C 52.1667,23.3333 55.6667,26.8333 63.5,26C 67.6667,21.8333 71.8333,17.6667 76,13.5C 79.314,23.1664 77.4807,31.6664 70.5,39C 65.777,41.2355 60.777,42.0688 55.5,41.5 Z"/></g>
<g><path style="opacity:1" fill="#d8d0ee" d="M 43.5,32.5 C 45.5398,34.177 47.5398,35.8437 49.5,37.5C 50.7888,38.6366 51.7888,39.9699 52.5,41.5C 49.1667,45.5 45.5,49.1667 41.5,52.5C 34.0351,59.4641 26.7018,66.6308 19.5,74C 8.68382,78.6804 3.18382,75.1804 3,63.5C 3.66667,62.1667 4.33333,60.8333 5,59.5C 15.0618,49.2706 25.2284,39.2706 35.5,29.5C 35.5,29.1667 35.5,28.8333 35.5,28.5C 36.4822,27.8592 37.4822,27.1925 38.5,26.5C 39.709,28.9408 41.3757,30.9408 43.5,32.5 Z M 10.5,64.5 C 11.8333,64.5 13.1667,64.5 14.5,64.5C 14.5,65.8333 14.5,67.1667 14.5,68.5C 13.1667,68.5 11.8333,68.5 10.5,68.5C 10.5,67.1667 10.5,65.8333 10.5,64.5 Z"/></g>
<g><path style="opacity:1" fill="#f38989" d="M 52.5,41.5 C 52.8333,41.5 53.1667,41.5 53.5,41.5C 60.1307,48.6315 66.9641,55.6315 74,62.5C 78.5236,69.7364 76.6902,74.4031 68.5,76.5C 66.701,76.423 65.0344,75.923 63.5,75C 56.2982,67.6308 48.9649,60.4641 41.5,53.5C 41.5,53.1667 41.5,52.8333 41.5,52.5C 45.5,49.1667 49.1667,45.5 52.5,41.5 Z"/></g>
<g><path style="opacity:0.925" fill="#8f79a5" d="M 34.5,29.5 C 34.8333,29.5 35.1667,29.5 35.5,29.5C 25.2284,39.2706 15.0618,49.2706 5,59.5C 4.33333,60.8333 3.66667,62.1667 3,63.5C 3.18382,75.1804 8.68382,78.6804 19.5,74C 26.7018,66.6308 34.0351,59.4641 41.5,52.5C 41.5,52.8333 41.5,53.1667 41.5,53.5C 41.5,53.8333 41.5,54.1667 41.5,54.5C 33.6711,62.1615 25.6711,69.6615 17.5,77C 3.59567,78.7589 -1.23767,72.9256 3,59.5C 11.369,51.2983 19.5357,42.965 27.5,34.5C 27.8333,34.5 28.1667,34.5 28.5,34.5C 30.5,32.8333 32.5,31.1667 34.5,29.5 Z M 10.5,64.5 C 10.5,65.8333 10.5,67.1667 10.5,68.5C 11.8333,68.5 13.1667,68.5 14.5,68.5C 14.5,67.1667 14.5,65.8333 14.5,64.5C 13.1667,64.5 11.8333,64.5 10.5,64.5 Z"/></g>
<g><path style="opacity:0.578" fill="#c84444" d="M 53.5,41.5 C 54.1667,41.5 54.8333,41.5 55.5,41.5C 62.1307,48.6315 68.9641,55.6315 76,62.5C 79.5,75 75,79.5 62.5,76C 55.2974,68.9649 48.2974,61.7982 41.5,54.5C 41.5,54.1667 41.5,53.8333 41.5,53.5C 48.9649,60.4641 56.2982,67.6308 63.5,75C 65.0344,75.923 66.701,76.423 68.5,76.5C 76.6902,74.4031 78.5236,69.7364 74,62.5C 66.9641,55.6315 60.1307,48.6315 53.5,41.5 Z"/></g>
<g><path style="opacity:0.482" fill="#907ca5" d="M 10.5,62.5 C 16.4877,62.664 17.821,65.164 14.5,70C 8.40339,70.1475 7.07006,67.6475 10.5,62.5 Z M 10.5,64.5 C 10.5,65.8333 10.5,67.1667 10.5,68.5C 11.8333,68.5 13.1667,68.5 14.5,68.5C 14.5,67.1667 14.5,65.8333 14.5,64.5C 13.1667,64.5 11.8333,64.5 10.5,64.5 Z"/></g>
</svg>
